<mxfile host="app.diagrams.net" agent="Mozilla/5.0 (Windows NT 10.0; Win64; x64) AppleWebKit/537.36 (KHTML, like Gecko) Chrome/131.0.0.0 Safari/537.36" version="26.0.7">
  <diagram name="Page-1" id="POi4Gn6B4Dy2wDxotkEP">
    <mxGraphModel dx="1588" dy="984" grid="1" gridSize="10" guides="1" tooltips="1" connect="1" arrows="1" fold="1" page="1" pageScale="1" pageWidth="850" pageHeight="1100" math="0" shadow="0">
      <root>
        <mxCell id="0" />
        <mxCell id="1" parent="0" />
        <mxCell id="hux0V4ShZ4dtdGJlVlQb-1" value="Movie" style="rounded=0;whiteSpace=wrap;html=1;" vertex="1" parent="1">
          <mxGeometry x="1460" y="270" width="120" height="60" as="geometry" />
        </mxCell>
        <mxCell id="hux0V4ShZ4dtdGJlVlQb-2" value="Member" style="rounded=0;whiteSpace=wrap;html=1;" vertex="1" parent="1">
          <mxGeometry x="905" y="270" width="120" height="60" as="geometry" />
        </mxCell>
        <mxCell id="hux0V4ShZ4dtdGJlVlQb-4" value="Title" style="ellipse;whiteSpace=wrap;html=1;" vertex="1" parent="1">
          <mxGeometry x="1390" y="130" width="120" height="80" as="geometry" />
        </mxCell>
        <mxCell id="hux0V4ShZ4dtdGJlVlQb-5" value="&lt;u&gt;Movie Number&lt;/u&gt;" style="ellipse;whiteSpace=wrap;html=1;" vertex="1" parent="1">
          <mxGeometry x="1530" y="130" width="120" height="80" as="geometry" />
        </mxCell>
        <mxCell id="hux0V4ShZ4dtdGJlVlQb-11" value="" style="ellipse;whiteSpace=wrap;html=1;" vertex="1" parent="1">
          <mxGeometry x="1670" y="260" width="120" height="80" as="geometry" />
        </mxCell>
        <mxCell id="hux0V4ShZ4dtdGJlVlQb-12" value="Format" style="ellipse;whiteSpace=wrap;html=1;" vertex="1" parent="1">
          <mxGeometry x="1680" y="272.5" width="100" height="55" as="geometry" />
        </mxCell>
        <mxCell id="hux0V4ShZ4dtdGJlVlQb-14" value="&lt;u&gt;Phone Number&lt;/u&gt;" style="ellipse;whiteSpace=wrap;html=1;" vertex="1" parent="1">
          <mxGeometry x="765" y="130" width="120" height="80" as="geometry" />
        </mxCell>
        <mxCell id="hux0V4ShZ4dtdGJlVlQb-16" value="Name" style="ellipse;whiteSpace=wrap;html=1;" vertex="1" parent="1">
          <mxGeometry x="905" y="130" width="120" height="80" as="geometry" />
        </mxCell>
        <mxCell id="hux0V4ShZ4dtdGJlVlQb-22" style="edgeStyle=orthogonalEdgeStyle;rounded=0;orthogonalLoop=1;jettySize=auto;html=1;entryX=0.5;entryY=0;entryDx=0;entryDy=0;fontStyle=1;curved=0;strokeColor=default;strokeWidth=4;" edge="1" parent="1" source="hux0V4ShZ4dtdGJlVlQb-19" target="hux0V4ShZ4dtdGJlVlQb-21">
          <mxGeometry relative="1" as="geometry" />
        </mxCell>
        <mxCell id="hux0V4ShZ4dtdGJlVlQb-19" value="Belongs" style="rhombus;whiteSpace=wrap;html=1;" vertex="1" parent="1">
          <mxGeometry x="1455" y="440" width="130" height="80" as="geometry" />
        </mxCell>
        <mxCell id="hux0V4ShZ4dtdGJlVlQb-21" value="Category" style="rounded=0;whiteSpace=wrap;html=1;" vertex="1" parent="1">
          <mxGeometry x="1460" y="590" width="120" height="60" as="geometry" />
        </mxCell>
        <mxCell id="hux0V4ShZ4dtdGJlVlQb-30" value="" style="endArrow=none;html=1;rounded=0;entryX=0.5;entryY=1;entryDx=0;entryDy=0;" edge="1" parent="1" target="hux0V4ShZ4dtdGJlVlQb-16">
          <mxGeometry width="50" height="50" relative="1" as="geometry">
            <mxPoint x="965" y="269" as="sourcePoint" />
            <mxPoint x="975" y="210" as="targetPoint" />
          </mxGeometry>
        </mxCell>
        <mxCell id="hux0V4ShZ4dtdGJlVlQb-32" value="" style="endArrow=none;html=1;rounded=0;exitX=0;exitY=0.25;exitDx=0;exitDy=0;" edge="1" parent="1" source="hux0V4ShZ4dtdGJlVlQb-2">
          <mxGeometry width="50" height="50" relative="1" as="geometry">
            <mxPoint x="825" y="280" as="sourcePoint" />
            <mxPoint x="825" y="210" as="targetPoint" />
          </mxGeometry>
        </mxCell>
        <mxCell id="hux0V4ShZ4dtdGJlVlQb-34" value="" style="endArrow=none;html=1;rounded=0;exitX=0.5;exitY=0;exitDx=0;exitDy=0;" edge="1" parent="1" source="hux0V4ShZ4dtdGJlVlQb-1">
          <mxGeometry width="50" height="50" relative="1" as="geometry">
            <mxPoint x="1400" y="260" as="sourcePoint" />
            <mxPoint x="1450" y="210" as="targetPoint" />
          </mxGeometry>
        </mxCell>
        <mxCell id="hux0V4ShZ4dtdGJlVlQb-35" value="" style="endArrow=none;html=1;rounded=0;exitX=0.5;exitY=0;exitDx=0;exitDy=0;" edge="1" parent="1" source="hux0V4ShZ4dtdGJlVlQb-1">
          <mxGeometry width="50" height="50" relative="1" as="geometry">
            <mxPoint x="1540" y="260" as="sourcePoint" />
            <mxPoint x="1590" y="210" as="targetPoint" />
          </mxGeometry>
        </mxCell>
        <mxCell id="hux0V4ShZ4dtdGJlVlQb-36" value="" style="endArrow=none;html=1;rounded=0;" edge="1" parent="1">
          <mxGeometry width="50" height="50" relative="1" as="geometry">
            <mxPoint x="1580" y="299.5" as="sourcePoint" />
            <mxPoint x="1665" y="299.5" as="targetPoint" />
          </mxGeometry>
        </mxCell>
        <mxCell id="hux0V4ShZ4dtdGJlVlQb-37" value="" style="endArrow=none;html=1;rounded=0;entryX=0;entryY=0.5;entryDx=0;entryDy=0;" edge="1" parent="1" target="hux0V4ShZ4dtdGJlVlQb-1">
          <mxGeometry width="50" height="50" relative="1" as="geometry">
            <mxPoint x="1025" y="300" as="sourcePoint" />
            <mxPoint x="1075" y="250" as="targetPoint" />
          </mxGeometry>
        </mxCell>
        <mxCell id="hux0V4ShZ4dtdGJlVlQb-38" value="" style="endArrow=none;html=1;rounded=0;endSize=6;startSize=6;jumpSize=6;strokeWidth=4;" edge="1" parent="1" source="hux0V4ShZ4dtdGJlVlQb-19">
          <mxGeometry width="50" height="50" relative="1" as="geometry">
            <mxPoint x="1470" y="380" as="sourcePoint" />
            <mxPoint x="1520" y="330" as="targetPoint" />
          </mxGeometry>
        </mxCell>
        <mxCell id="hux0V4ShZ4dtdGJlVlQb-39" value="&lt;font&gt;&lt;u&gt;Category Text&lt;/u&gt;&lt;/font&gt;" style="ellipse;whiteSpace=wrap;html=1;strokeColor=light-dark(#000000,#FFFFFF);" vertex="1" parent="1">
          <mxGeometry x="1630" y="480" width="120" height="80" as="geometry" />
        </mxCell>
        <mxCell id="hux0V4ShZ4dtdGJlVlQb-40" value="" style="endArrow=none;html=1;rounded=0;entryX=0.5;entryY=1;entryDx=0;entryDy=0;" edge="1" parent="1" target="hux0V4ShZ4dtdGJlVlQb-39">
          <mxGeometry width="50" height="50" relative="1" as="geometry">
            <mxPoint x="1580" y="620" as="sourcePoint" />
            <mxPoint x="1630" y="570" as="targetPoint" />
          </mxGeometry>
        </mxCell>
        <mxCell id="hux0V4ShZ4dtdGJlVlQb-41" value="" style="endArrow=none;html=1;rounded=0;strokeWidth=1;" edge="1" parent="1">
          <mxGeometry width="50" height="50" relative="1" as="geometry">
            <mxPoint x="1074.5" y="445" as="sourcePoint" />
            <mxPoint x="1075" y="370" as="targetPoint" />
          </mxGeometry>
        </mxCell>
        <mxCell id="hux0V4ShZ4dtdGJlVlQb-44" style="edgeStyle=orthogonalEdgeStyle;rounded=0;orthogonalLoop=1;jettySize=auto;html=1;entryX=0;entryY=0.5;entryDx=0;entryDy=0;strokeWidth=1;" edge="1" parent="1" target="hux0V4ShZ4dtdGJlVlQb-21">
          <mxGeometry relative="1" as="geometry">
            <mxPoint x="1415" y="480" as="sourcePoint" />
          </mxGeometry>
        </mxCell>
        <mxCell id="hux0V4ShZ4dtdGJlVlQb-42" value="Provide" style="rhombus;whiteSpace=wrap;html=1;" vertex="1" parent="1">
          <mxGeometry x="1010" y="440" width="130" height="80" as="geometry" />
        </mxCell>
        <mxCell id="hux0V4ShZ4dtdGJlVlQb-45" value="IsA" style="triangle;whiteSpace=wrap;html=1;rotation=-90;" vertex="1" parent="1">
          <mxGeometry x="855" y="380" width="60" height="80" as="geometry" />
        </mxCell>
        <mxCell id="hux0V4ShZ4dtdGJlVlQb-46" value="" style="endArrow=none;html=1;rounded=0;" edge="1" parent="1">
          <mxGeometry width="50" height="50" relative="1" as="geometry">
            <mxPoint x="965" y="370" as="sourcePoint" />
            <mxPoint x="965" y="330" as="targetPoint" />
          </mxGeometry>
        </mxCell>
        <mxCell id="hux0V4ShZ4dtdGJlVlQb-47" value="" style="endArrow=none;html=1;rounded=0;" edge="1" parent="1">
          <mxGeometry width="50" height="50" relative="1" as="geometry">
            <mxPoint x="1075" y="370" as="sourcePoint" />
            <mxPoint x="965" y="370" as="targetPoint" />
          </mxGeometry>
        </mxCell>
        <mxCell id="hux0V4ShZ4dtdGJlVlQb-48" value="" style="endArrow=none;html=1;rounded=0;exitX=1;exitY=0.5;exitDx=0;exitDy=0;" edge="1" parent="1" source="hux0V4ShZ4dtdGJlVlQb-45">
          <mxGeometry width="50" height="50" relative="1" as="geometry">
            <mxPoint x="885" y="370" as="sourcePoint" />
            <mxPoint x="905" y="310" as="targetPoint" />
            <Array as="points">
              <mxPoint x="885" y="310" />
            </Array>
          </mxGeometry>
        </mxCell>
        <mxCell id="hux0V4ShZ4dtdGJlVlQb-50" value="Golden Member" style="rounded=0;whiteSpace=wrap;html=1;" vertex="1" parent="1">
          <mxGeometry x="735" y="550" width="120" height="60" as="geometry" />
        </mxCell>
        <mxCell id="hux0V4ShZ4dtdGJlVlQb-51" value="Bronze Member" style="rounded=0;whiteSpace=wrap;html=1;" vertex="1" parent="1">
          <mxGeometry x="905" y="550" width="120" height="60" as="geometry" />
        </mxCell>
        <mxCell id="hux0V4ShZ4dtdGJlVlQb-52" value="" style="endArrow=none;html=1;rounded=0;exitX=0.5;exitY=0;exitDx=0;exitDy=0;" edge="1" parent="1" source="hux0V4ShZ4dtdGJlVlQb-50">
          <mxGeometry width="50" height="50" relative="1" as="geometry">
            <mxPoint x="825" y="500" as="sourcePoint" />
            <mxPoint x="885" y="450" as="targetPoint" />
          </mxGeometry>
        </mxCell>
        <mxCell id="hux0V4ShZ4dtdGJlVlQb-53" value="" style="endArrow=none;html=1;rounded=0;exitX=0.5;exitY=0;exitDx=0;exitDy=0;" edge="1" parent="1" source="hux0V4ShZ4dtdGJlVlQb-51">
          <mxGeometry width="50" height="50" relative="1" as="geometry">
            <mxPoint x="835" y="500" as="sourcePoint" />
            <mxPoint x="885" y="450" as="targetPoint" />
          </mxGeometry>
        </mxCell>
        <mxCell id="hux0V4ShZ4dtdGJlVlQb-54" value="Credit Card #" style="ellipse;whiteSpace=wrap;html=1;" vertex="1" parent="1">
          <mxGeometry x="735" y="670" width="120" height="80" as="geometry" />
        </mxCell>
        <mxCell id="hux0V4ShZ4dtdGJlVlQb-55" value="" style="endArrow=none;html=1;rounded=0;exitX=0.5;exitY=0;exitDx=0;exitDy=0;" edge="1" parent="1" source="hux0V4ShZ4dtdGJlVlQb-54">
          <mxGeometry width="50" height="50" relative="1" as="geometry">
            <mxPoint x="745" y="660" as="sourcePoint" />
            <mxPoint x="795" y="610" as="targetPoint" />
          </mxGeometry>
        </mxCell>
        <mxCell id="hux0V4ShZ4dtdGJlVlQb-56" value="Dependent" style="rounded=0;whiteSpace=wrap;html=1;" vertex="1" parent="1">
          <mxGeometry x="455" y="270" width="120" height="60" as="geometry" />
        </mxCell>
        <mxCell id="hux0V4ShZ4dtdGJlVlQb-60" value="Dep_of" style="rhombus;whiteSpace=wrap;html=1;" vertex="1" parent="1">
          <mxGeometry x="655" y="260" width="130" height="80" as="geometry" />
        </mxCell>
        <mxCell id="hux0V4ShZ4dtdGJlVlQb-61" value="" style="endArrow=none;html=1;rounded=0;" edge="1" parent="1" target="hux0V4ShZ4dtdGJlVlQb-60">
          <mxGeometry width="50" height="50" relative="1" as="geometry">
            <mxPoint x="575" y="300" as="sourcePoint" />
            <mxPoint x="625" y="250" as="targetPoint" />
          </mxGeometry>
        </mxCell>
        <mxCell id="hux0V4ShZ4dtdGJlVlQb-63" value="&lt;u&gt;Name&lt;/u&gt;" style="ellipse;whiteSpace=wrap;html=1;" vertex="1" parent="1">
          <mxGeometry x="455" y="140" width="120" height="80" as="geometry" />
        </mxCell>
        <mxCell id="hux0V4ShZ4dtdGJlVlQb-64" value="" style="endArrow=none;html=1;rounded=0;exitX=0.5;exitY=0;exitDx=0;exitDy=0;" edge="1" parent="1" source="hux0V4ShZ4dtdGJlVlQb-56">
          <mxGeometry width="50" height="50" relative="1" as="geometry">
            <mxPoint x="465" y="270" as="sourcePoint" />
            <mxPoint x="515" y="220" as="targetPoint" />
          </mxGeometry>
        </mxCell>
        <mxCell id="hux0V4ShZ4dtdGJlVlQb-66" value="D_Rent" style="rhombus;whiteSpace=wrap;html=1;" vertex="1" parent="1">
          <mxGeometry x="450" y="380" width="130" height="80" as="geometry" />
        </mxCell>
        <mxCell id="hux0V4ShZ4dtdGJlVlQb-67" value="" style="endArrow=none;html=1;rounded=0;" edge="1" parent="1">
          <mxGeometry width="50" height="50" relative="1" as="geometry">
            <mxPoint x="515" y="380" as="sourcePoint" />
            <mxPoint x="515" y="330" as="targetPoint" />
          </mxGeometry>
        </mxCell>
      </root>
    </mxGraphModel>
  </diagram>
</mxfile>
